<svg width="201" height="201" viewBox="0 0 201 201" fill="none" xmlns="http://www.w3.org/2000/svg">
<circle cx="100.098" cy="100.726" r="95.6623" fill="#020717" stroke="url(#paint0_linear_619_880)" stroke-width="8.59972"/>
<path d="M32.3828 61.8807C32.7546 61.7455 33.1264 61.6441 33.2954 61.6103C44.9571 59.0756 67.0636 54.8848 80.3816 56.2366C81.4633 56.338 82.4435 55.5945 82.6125 54.5468C83.0858 51.5389 84.3364 46.7735 85.0801 46.0976C85.5871 45.6582 86.466 44.7119 88.5279 46.0976C90.2856 47.2805 97.9586 54.851 100.291 57.183C100.73 57.6223 101.305 57.8251 101.913 57.7575C103.637 57.5885 107.389 57.3519 109.992 57.8589C113.44 58.5348 136.966 71.6818 141.834 77.2245C145.518 81.4491 145.586 84.8288 145.417 86.2483C145.349 86.7214 145.45 87.1946 145.721 87.6001L156.605 104.904C156.909 105.377 157.011 105.952 156.842 106.493C156.504 107.844 155.625 110.345 153.664 111.968C153.191 112.339 152.887 112.914 152.853 113.522C152.785 115.347 152.515 119.099 151.501 120.146C150.419 121.228 146.904 124.337 145.315 125.723C144.842 126.129 144.605 126.737 144.639 127.345C144.741 129.576 144.842 134.983 143.186 136.065C141.124 137.45 129.361 138.126 127.975 136.065L116.043 124.236C111.615 121.634 106.477 120.146 101.001 120.146C92.0771 120.146 84.066 124.067 78.6239 130.286C77.8803 130.995 77.238 131.773 76.7648 132.584C76.731 132.618 76.731 132.651 76.6972 132.685C73.2494 137.552 71.2213 143.466 71.2213 149.854C71.2213 166.279 84.5392 179.595 100.967 179.595C144.538 179.595 179.827 144.277 179.827 100.747C179.827 57.2168 144.538 21.8652 101.001 21.8652C71.5593 21.8652 45.9036 37.9863 32.3828 61.8807C32.349 61.8807 32.349 61.8807 32.3828 61.8807Z" fill="url(#paint1_linear_619_880)"/>
<path d="M32.3828 61.8807C32.7546 61.7455 33.1264 61.6441 33.2954 61.6103C44.9571 59.0756 67.0636 54.8848 80.3816 56.2366C81.4633 56.338 82.4435 55.5945 82.6125 54.5468C83.0858 51.5389 84.3364 46.7735 85.0801 46.0976C85.5871 45.6582 86.466 44.7119 88.5279 46.0976C90.2856 47.2805 97.9586 54.851 100.291 57.183C100.73 57.6223 101.305 57.8251 101.913 57.7575C103.637 57.5885 107.389 57.3519 109.992 57.8589C113.44 58.5348 136.966 71.6818 141.834 77.2245C145.518 81.4491 145.586 84.8288 145.417 86.2483C145.349 86.7214 145.45 87.1946 145.721 87.6001L156.605 104.904C156.909 105.377 157.011 105.952 156.842 106.493C156.504 107.844 155.625 110.345 153.664 111.968C153.191 112.339 152.887 112.914 152.853 113.522C152.785 115.347 152.515 119.099 151.501 120.146C150.419 121.228 146.904 124.337 145.315 125.723C144.842 126.129 144.605 126.737 144.639 127.345C144.741 129.576 144.842 134.983 143.186 136.065C141.124 137.45 129.361 138.126 127.975 136.065L116.043 124.236C111.615 121.634 106.477 120.146 101.001 120.146C92.0771 120.146 84.066 124.067 78.6239 130.286C77.8803 130.995 77.238 131.773 76.7648 132.584C76.731 132.618 76.731 132.651 76.6972 132.685C73.2494 137.552 71.2213 143.466 71.2213 149.854C71.2213 166.279 84.5392 179.595 100.967 179.595C144.538 179.595 179.827 144.277 179.827 100.747C179.827 57.2168 144.538 21.8652 101.001 21.8652C71.5593 21.8652 45.9036 37.9863 32.3828 61.8807C32.349 61.8807 32.349 61.8807 32.3828 61.8807Z" fill="url(#paint2_linear_619_880)" fill-opacity="0.4"/>
<defs>
<linearGradient id="paint0_linear_619_880" x1="96.4428" y1="0.763631" x2="91.2707" y2="200.46" gradientUnits="userSpaceOnUse">
<stop stop-color="#FFDFBD"/>
<stop offset="1" stop-color="#D0A7A8"/>
</linearGradient>
<linearGradient id="paint1_linear_619_880" x1="780.394" y1="306.77" x2="106.099" y2="179.558" gradientUnits="userSpaceOnUse">
<stop stop-color="#7484A0"/>
<stop offset="1" stop-color="#5F6C85"/>
</linearGradient>
<linearGradient id="paint2_linear_619_880" x1="106.092" y1="-34.5505" x2="106.092" y2="179.595" gradientUnits="userSpaceOnUse">
<stop stop-color="white"/>
<stop offset="1" stop-color="white" stop-opacity="0"/>
</linearGradient>
</defs>
</svg>
